<?xml version="1.0" encoding="UTF-8" standalone="no"?>
<!-- Created with Inkscape (http://www.inkscape.org/) -->

<svg
   xmlns:dc="http://purl.org/dc/elements/1.1/"
   xmlns:cc="http://creativecommons.org/ns#"
   xmlns:rdf="http://www.w3.org/1999/02/22-rdf-syntax-ns#"
   xmlns:svg="http://www.w3.org/2000/svg"
   xmlns="http://www.w3.org/2000/svg"
   xmlns:sodipodi="http://sodipodi.sourceforge.net/DTD/sodipodi-0.dtd"
   xmlns:inkscape="http://www.inkscape.org/namespaces/inkscape"
   width="210mm"
   height="297mm"
   id="svg23944"
   version="1.1"
   inkscape:version="0.48.1 r9760"
   sodipodi:docname="Kreise.pdf">
  <defs
     id="defs23946" />
  <sodipodi:namedview
     id="base"
     pagecolor="#ffffff"
     bordercolor="#666666"
     borderopacity="1.0"
     inkscape:pageopacity="0.0"
     inkscape:pageshadow="2"
     inkscape:zoom="0.49497475"
     inkscape:cx="217.36213"
     inkscape:cy="548.88867"
     inkscape:document-units="px"
     inkscape:current-layer="layer1"
     showgrid="false"
     inkscape:window-width="1366"
     inkscape:window-height="738"
     inkscape:window-x="0"
     inkscape:window-y="0"
     inkscape:window-maximized="1">
    <inkscape:grid
       type="xygrid"
       id="grid24486" />
  </sodipodi:namedview>
  <metadata
     id="metadata23949">
    <rdf:RDF>
      <cc:Work
         rdf:about="">
        <dc:format>image/svg+xml</dc:format>
        <dc:type
           rdf:resource="http://purl.org/dc/dcmitype/StillImage" />
        <dc:title></dc:title>
      </cc:Work>
    </rdf:RDF>
  </metadata>
  <g
     inkscape:label="Ebene 1"
     inkscape:groupmode="layer"
     id="layer1">
    <path
       sodipodi:type="arc"
       style="opacity:0.10000000000000001;fill:none;stroke:#000000;stroke-width:12;stroke-linecap:round;stroke-miterlimit:4;stroke-opacity:1;stroke-dasharray:none;stroke-dashoffset:0"
       id="path24495"
       sodipodi:cx="370"
       sodipodi:cy="362.36218"
       sodipodi:rx="350"
       sodipodi:ry="350"
       d="m 720,362.36218 a 350,350 0 1 1 -700,0 350,350 0 1 1 700,0 z" />
    <path
       d="m 720,362.36218 a 350,350 0 1 1 -700,0 350,350 0 1 1 700,0 z"
       sodipodi:ry="350"
       sodipodi:rx="350"
       sodipodi:cy="362.36218"
       sodipodi:cx="370"
       id="path24497"
       style="opacity:0.10000000000000001;fill:none;stroke:#000000;stroke-width:14.4827586;stroke-linecap:round;stroke-miterlimit:4;stroke-opacity:1;stroke-dasharray:none;stroke-dashoffset:0"
       sodipodi:type="arc"
       transform="matrix(0.82857143,0,0,0.82857143,63.428571,62.119231)" />
    <path
       transform="matrix(0.65714286,0,0,0.65714286,126.85714,124.23846)"
       sodipodi:type="arc"
       style="opacity:0.10000000000000001;fill:none;stroke:#000000;stroke-width:18.26086949;stroke-linecap:round;stroke-miterlimit:4;stroke-opacity:1;stroke-dasharray:none;stroke-dashoffset:0"
       id="path24499"
       sodipodi:cx="370"
       sodipodi:cy="362.36218"
       sodipodi:rx="350"
       sodipodi:ry="350"
       d="m 720,362.36218 a 350,350 0 1 1 -700,0 350,350 0 1 1 700,0 z" />
    <path
       d="m 720,362.36218 a 350,350 0 1 1 -700,0 350,350 0 1 1 700,0 z"
       sodipodi:ry="350"
       sodipodi:rx="350"
       sodipodi:cy="362.36218"
       sodipodi:cx="370"
       id="path24501"
       style="opacity:0.10000000000000001;fill:none;stroke:#000000;stroke-width:24.70588264;stroke-linecap:round;stroke-miterlimit:4;stroke-opacity:1;stroke-dasharray:none;stroke-dashoffset:0"
       sodipodi:type="arc"
       transform="matrix(0.48571428,0,0,0.48571428,190.28571,186.35769)" />
    <path
       transform="matrix(0.3142857,0,0,0.3142857,253.71429,248.47693)"
       sodipodi:type="arc"
       style="opacity:0.10000000000000001;fill:none;stroke:#000000;stroke-width:38.18181992;stroke-linecap:round;stroke-miterlimit:4;stroke-opacity:1;stroke-dasharray:none;stroke-dashoffset:0"
       id="path24503"
       sodipodi:cx="370"
       sodipodi:cy="362.36218"
       sodipodi:rx="350"
       sodipodi:ry="350"
       d="m 720,362.36218 a 350,350 0 1 1 -700,0 350,350 0 1 1 700,0 z" />
    <path
       d="m 720,362.36218 a 350,350 0 1 1 -700,0 350,350 0 1 1 700,0 z"
       sodipodi:ry="350"
       sodipodi:rx="350"
       sodipodi:cy="362.36218"
       sodipodi:cx="370"
       id="path24505"
       style="opacity:0.10000000000000001;fill:none;stroke:#000000;stroke-width:84.00000168;stroke-linecap:round;stroke-miterlimit:4;stroke-opacity:1;stroke-dasharray:none;stroke-dashoffset:0"
       sodipodi:type="arc"
       transform="matrix(0.14285714,0,0,0.14285714,317.14286,310.59616)" />
    <path
       d="m 720,362.36218 a 350,350 0 1 1 -700,0 350,350 0 1 1 700,0 z"
       sodipodi:ry="350"
       sodipodi:rx="350"
       sodipodi:cy="362.36218"
       sodipodi:cx="370"
       id="path24511"
       style="opacity:0.10000000000000001;fill:none;stroke:#000000;stroke-width:38.18181992;stroke-linecap:round;stroke-miterlimit:4;stroke-opacity:1;stroke-dasharray:none;stroke-dashoffset:0"
       sodipodi:type="arc"
       transform="matrix(0.3142857,0,0,0.3142857,13.71429,690.47693)" />
    <path
       transform="matrix(0.14285714,0,0,0.14285714,77.14286,752.59616)"
       sodipodi:type="arc"
       style="opacity:0.10000000000000001;fill:none;stroke:#000000;stroke-width:84.00000168;stroke-linecap:round;stroke-miterlimit:4;stroke-opacity:1;stroke-dasharray:none;stroke-dashoffset:0"
       id="path24513"
       sodipodi:cx="370"
       sodipodi:cy="362.36218"
       sodipodi:rx="350"
       sodipodi:ry="350"
       d="m 720,362.36218 a 350,350 0 1 1 -700,0 350,350 0 1 1 700,0 z" />
    <path
       transform="matrix(0.3142857,0,0,0.3142857,491.71429,690.47693)"
       sodipodi:type="arc"
       style="opacity:0.10000000000000001;fill:none;stroke:#000000;stroke-width:38.18181992;stroke-linecap:round;stroke-miterlimit:4;stroke-opacity:1;stroke-dasharray:none;stroke-dashoffset:0"
       id="path24515"
       sodipodi:cx="370"
       sodipodi:cy="362.36218"
       sodipodi:rx="350"
       sodipodi:ry="350"
       d="m 720,362.36218 a 350,350 0 1 1 -700,0 350,350 0 1 1 700,0 z" />
    <path
       d="m 720,362.36218 a 350,350 0 1 1 -700,0 350,350 0 1 1 700,0 z"
       sodipodi:ry="350"
       sodipodi:rx="350"
       sodipodi:cy="362.36218"
       sodipodi:cx="370"
       id="path24517"
       style="opacity:0.10000000000000001;fill:none;stroke:#000000;stroke-width:84.00000168;stroke-linecap:round;stroke-miterlimit:4;stroke-opacity:1;stroke-dasharray:none;stroke-dashoffset:0"
       sodipodi:type="arc"
       transform="matrix(0.14285714,0,0,0.14285714,555.14286,752.59616)" />
    <path
       d="m 720,362.36218 a 350,350 0 1 1 -700,0 350,350 0 1 1 700,0 z"
       sodipodi:ry="350"
       sodipodi:rx="350"
       sodipodi:cy="362.36218"
       sodipodi:cx="370"
       id="path24519"
       style="opacity:0.10000000000000001;fill:none;stroke:#000000;stroke-width:38.18181992;stroke-linecap:round;stroke-miterlimit:4;stroke-opacity:1;stroke-dasharray:none;stroke-dashoffset:0"
       sodipodi:type="arc"
       transform="matrix(0.3142857,0,0,0.3142857,251.71429,806.47693)" />
    <path
       transform="matrix(0.14285714,0,0,0.14285714,315.14286,868.59616)"
       sodipodi:type="arc"
       style="opacity:0.10000000000000001;fill:none;stroke:#000000;stroke-width:84.00000168;stroke-linecap:round;stroke-miterlimit:4;stroke-opacity:1;stroke-dasharray:none;stroke-dashoffset:0"
       id="path24521"
       sodipodi:cx="370"
       sodipodi:cy="362.36218"
       sodipodi:rx="350"
       sodipodi:ry="350"
       d="m 720,362.36218 a 350,350 0 1 1 -700,0 350,350 0 1 1 700,0 z" />
  </g>
</svg>
