<?xml version="1.0" encoding="UTF-8" standalone="no"?>
<!-- Created with Inkscape (http://www.inkscape.org/) -->

<svg
   xmlns:dc="http://purl.org/dc/elements/1.1/"
   xmlns:cc="http://creativecommons.org/ns#"
   xmlns:rdf="http://www.w3.org/1999/02/22-rdf-syntax-ns#"
   xmlns:svg="http://www.w3.org/2000/svg"
   xmlns="http://www.w3.org/2000/svg"
   xmlns:sodipodi="http://sodipodi.sourceforge.net/DTD/sodipodi-0.dtd"
   xmlns:inkscape="http://www.inkscape.org/namespaces/inkscape"
   width="64"
   height="64"
   id="svg2985"
   version="1.1"
   inkscape:version="0.48.2 r9819"
   sodipodi:docname="Buttons.svg"
   inkscape:export-filename="/home/bengt/Studium/1212/Interaktive-Systeme/Projekte/FileNetwork/Vortraege/Prototyp/Grafiken/Button_Verbindungen.png"
   inkscape:export-xdpi="90"
   inkscape:export-ydpi="90">
  <defs
     id="defs2987" />
  <sodipodi:namedview
     id="base"
     pagecolor="#ffffff"
     bordercolor="#666666"
     borderopacity="1.0"
     inkscape:pageopacity="0.0"
     inkscape:pageshadow="2"
     inkscape:zoom="4.165"
     inkscape:cx="-25.160349"
     inkscape:cy="31.912172"
     inkscape:current-layer="layer1"
     showgrid="true"
     inkscape:document-units="px"
     inkscape:grid-bbox="true"
     inkscape:window-width="1366"
     inkscape:window-height="735"
     inkscape:window-x="0"
     inkscape:window-y="0"
     inkscape:window-maximized="1"
     fit-margin-top="0"
     fit-margin-left="0"
     fit-margin-right="0"
     fit-margin-bottom="0"
     showborder="false">
    <inkscape:grid
       type="xygrid"
       id="grid2993"
       empspacing="4"
       visible="true"
       enabled="true"
       snapvisiblegridlinesonly="true" />
  </sodipodi:namedview>
  <metadata
     id="metadata2990">
    <rdf:RDF>
      <cc:Work
         rdf:about="">
        <dc:format>image/svg+xml</dc:format>
        <dc:type
           rdf:resource="http://purl.org/dc/dcmitype/StillImage" />
        <dc:title></dc:title>
      </cc:Work>
    </rdf:RDF>
  </metadata>
  <g
     id="layer1"
     inkscape:label="Layer 1"
     inkscape:groupmode="layer"
     transform="translate(-68,0)">
    <rect
       style="fill:#404040;fill-opacity:1;stroke:none"
       id="rect3847"
       width="64"
       height="64"
       x="-1.4305115e-06"
       y="0"
       ry="12" />
    <rect
       ry="8"
       y="4"
       x="3.9999986"
       height="56"
       width="56"
       id="rect3849"
       style="fill:#e4e4e4;fill-opacity:1;stroke:none" />
    <path
       style="fill:#000000;fill-opacity:1;stroke:none"
       d="M 24,18 C 15.163444,18 8,25.163444 8,34 8,42.836556 15.163444,50 24,50 32.836556,50 40,42.836556 40,34 40,25.163444 32.836556,18 24,18 z m 0,2 c 7.731986,0 14,6.268014 14,14 0,7.731986 -6.268014,14 -14,14 -7.731986,0 -14,-6.268014 -14,-14 0,-7.731986 6.268014,-14 14,-14 z"
       id="path3802"
       inkscape:connector-curvature="0" />
    <path
       style="fill:#000000;fill-opacity:1;stroke:none"
       d="m 31,8 c -4.970563,0 -9,4.029437 -9,9 0,4.970563 4.029437,9 9,9 4.970563,0 9,-4.029437 9,-9 0,-4.970563 -4.029437,-9 -9,-9 z m 0,2 c 3.865993,0 7,3.134007 7,7 0,3.865993 -3.134007,7 -7,7 -3.865993,0 -7,-3.134007 -7,-7 0,-3.865993 3.134007,-7 7,-7 z"
       id="path3804"
       inkscape:connector-curvature="0" />
    <path
       style="fill:#000000;fill-opacity:1;stroke:none"
       d="M 43.5,31 C 36.596441,31 31,36.596441 31,43.5 31,50.403559 36.596441,56 43.5,56 50.403559,56 56,50.403559 56,43.5 56,36.596441 50.403559,31 43.5,31 z m 0,2 C 49.29899,33 54,37.70101 54,43.5 54,49.29899 49.29899,54 43.5,54 37.70101,54 33,49.29899 33,43.5 33,37.70101 37.70101,33 43.5,33 z"
       id="path3817"
       inkscape:connector-curvature="0" />
    <rect
       ry="12"
       y="0"
       x="68"
       height="64"
       width="64"
       id="rect3835"
       style="fill:#404040;fill-opacity:1;stroke:none" />
    <rect
       style="fill:#e4e4e4;fill-opacity:1;stroke:none"
       id="rect3837"
       width="56"
       height="56"
       x="72"
       y="4"
       ry="8" />
    <path
       style="fill:none;stroke:#000000;stroke-width:2;stroke-linecap:round;stroke-linejoin:miter;stroke-miterlimit:4;stroke-opacity:1;stroke-dasharray:none"
       d="M 95,10 78,25"
       id="path3829"
       inkscape:connector-curvature="0"
       sodipodi:nodetypes="cc" />
    <path
       inkscape:connector-curvature="0"
       id="path3839"
       d="m 101,12 5,20"
       style="fill:none;stroke:#000000;stroke-width:2;stroke-linecap:round;stroke-linejoin:miter;stroke-miterlimit:4;stroke-opacity:1;stroke-dasharray:none"
       sodipodi:nodetypes="cc" />
    <path
       style="fill:none;stroke:#000000;stroke-width:2;stroke-linecap:round;stroke-linejoin:miter;stroke-miterlimit:4;stroke-opacity:1;stroke-dasharray:none"
       d="m 79,31 22,5"
       id="path3841"
       inkscape:connector-curvature="0"
       sodipodi:nodetypes="cc" />
    <path
       sodipodi:nodetypes="cc"
       style="fill:none;stroke:#000000;stroke-width:2;stroke-linecap:round;stroke-linejoin:miter;stroke-miterlimit:4;stroke-opacity:1;stroke-dasharray:none"
       d="m 110,36 14,2"
       id="path3843"
       inkscape:connector-curvature="0" />
    <path
       inkscape:connector-curvature="0"
       id="path3845"
       d="m 106,40 -1,14"
       style="fill:none;stroke:#000000;stroke-width:2;stroke-linecap:round;stroke-linejoin:miter;stroke-miterlimit:4;stroke-opacity:1;stroke-dasharray:none"
       sodipodi:nodetypes="cc" />
    <rect
       ry="12"
       y="0"
       x="-68"
       height="64"
       width="64"
       id="rect3851"
       style="fill:#404040;fill-opacity:1;stroke:none" />
    <rect
       style="fill:#e4e4e4;fill-opacity:1;stroke:none"
       id="rect3853"
       width="56"
       height="56"
       x="-64"
       y="4"
       ry="8" />
    <path
       style="fill:#000000;fill-opacity:1;stroke:none"
       d="m 32,40 c -4.418278,0 -8,3.581722 -8,8 0,4.418278 3.581722,8 8,8 4.418278,0 8,-3.581722 8,-8 0,-4.418278 -3.581722,-8 -8,-8 z m 0,2 c 3.313708,0 6,2.686292 6,6 0,3.313708 -2.686292,6 -6,6 -3.313708,0 -6,-2.686292 -6,-6 0,-3.313708 2.686292,-6 6,-6 z"
       transform="translate(-68,0)"
       id="path3857"
       inkscape:connector-curvature="0" />
    <path
       sodipodi:nodetypes="ccccc"
       style="fill:none;stroke:#000000;stroke-width:2;stroke-linecap:round;stroke-linejoin:miter;stroke-miterlimit:1.89999998;stroke-opacity:1;stroke-dasharray:none"
       d="m -29,36 6,-27 -26,0 6,27 c 4,-2 10,-2 14,0 z"
       id="path3867"
       inkscape:connector-curvature="0" />
  </g>
</svg>
